/* XPM */
static const char *RETURN_xpm[] = {
"29 29 3 1",
" 	c None",
".	c #FF0000",
"+	c #000000",
".............................",
"..........+..................",
"..........++.................",
"..........+++................",
"..........++++...............",
"..........+++++..............",
"..........++++++.............",
"..........+++++++............",
"..........++++++++...........",
"..........+++++++++..........",
"..........++++++++++.........",
"...........++++++++++........",
"............++++++++++.......",
".............++++++++++......",
"..............++++++++++.....",
".............++++++++++......",
"............++++++++++.......",
"...........++++++++++........",
"..........++++++++++.........",
"..........+++++++++..........",
"..........++++++++...........",
"..........+++++++............",
"..........++++++.............",
"..........+++++..............",
"..........++++...............",
"..........+++................",
"..........++.................",
"..........+..................",
"............................."};
